<?xml version="1.0" standalone="no"?>
<!DOCTYPE svg PUBLIC "-//W3C//DTD SVG 20010904//EN"
 "http://www.w3.org/TR/2001/REC-SVG-20010904/DTD/svg10.dtd">
<svg version="1.0" xmlns="http://www.w3.org/2000/svg"
 width="150.000000pt" height="150.000000pt" viewBox="0 0 150.000000 150.000000"
 preserveAspectRatio="xMidYMid meet">
<metadata>
Created by potrace 1.14, written by Peter Selinger 2001-2017
</metadata>
<g transform="translate(0.000000,150.000000) scale(0.100000,-0.100000)"
fill="#000000" stroke="none">
<path d="M600 1484 c-295 -64 -516 -284 -584 -582 -18 -77 -14 -265 7 -337 66
-230 219 -411 425 -502 126 -56 326 -76 454 -47 203 46 367 159 475 326 41 63
91 169 98 208 21 117 26 175 22 244 -6 74 -8 92 -21 144 -45 176 -162 338
-317 439 -69 44 -162 87 -210 97 -13 3 -35 8 -49 11 -53 14 -236 13 -300 -1z"/>
</g>
</svg>
